<?xml version="1.0" encoding="UTF-8" ?>
<!DOCTYPE svg PUBLIC "-//W3C//DTD SVG 1.1//EN" "http://www.w3.org/Graphics/SVG/1.1/DTD/svg11.dtd">
<svg width="326pt" height="351pt" viewBox="0 0 326 351" version="1.1" xmlns="http://www.w3.org/2000/svg">
<g id="#d3964dff">
<path fill="#d3964d" opacity="1.00" d=" M 156.07 15.95 C 168.43 14.30 181.59 16.80 191.84 24.11 C 191.40 20.93 190.20 15.53 195.02 15.40 C 196.51 17.38 197.69 19.59 198.09 22.05 C 198.26 22.39 198.61 23.07 198.79 23.40 C 199.02 23.09 199.49 22.47 199.73 22.16 C 200.59 19.96 203.93 20.28 205.38 21.70 C 206.67 24.41 206.08 27.53 205.93 30.41 C 219.84 29.51 233.79 35.51 242.80 46.12 C 251.92 56.49 256.08 70.10 258.43 83.45 C 260.02 90.67 261.08 98.00 263.04 105.13 C 266.13 117.57 273.40 128.92 273.67 142.03 C 274.12 152.75 269.84 164.30 260.38 170.10 C 258.96 170.62 257.53 171.12 256.10 171.59 C 259.27 166.97 262.74 162.31 263.69 156.64 C 266.53 144.51 258.01 130.59 245.57 128.43 C 239.47 127.23 233.46 129.36 228.14 132.20 C 217.79 119.13 207.48 106.01 197.20 92.87 C 192.37 86.60 187.82 79.74 186.25 71.85 C 184.99 65.37 186.31 58.71 188.74 52.67 C 181.38 50.56 173.43 52.25 166.78 55.75 C 157.78 60.40 150.49 67.61 141.99 73.02 C 127.70 82.53 111.35 89.01 94.38 91.67 C 93.01 92.03 91.11 91.95 90.70 93.66 C 84.64 107.71 81.22 122.88 80.39 138.15 C 80.30 145.82 79.64 153.64 81.43 161.18 C 73.47 158.77 66.01 154.60 59.60 149.30 C 52.77 143.59 48.27 133.97 51.23 125.14 C 53.91 115.02 62.04 107.93 67.75 99.56 C 73.28 91.07 72.96 80.37 77.56 71.48 C 92.40 41.58 122.72 19.48 156.07 15.95 M 122.54 41.49 C 122.43 42.15 122.20 43.47 122.09 44.13 C 124.51 43.02 126.51 41.25 128.61 39.66 C 136.16 34.23 145.43 31.47 154.70 31.46 C 154.68 30.49 154.35 28.93 152.97 29.26 C 141.78 29.22 130.61 33.75 122.54 41.49 M 147.72 53.86 C 132.20 63.09 117.25 74.82 98.92 77.66 C 94.34 78.66 89.69 77.80 85.09 78.05 C 84.99 78.56 84.79 79.57 84.70 80.08 C 90.14 80.73 95.68 80.80 101.09 79.77 C 115.34 77.34 127.68 69.32 139.73 61.80 C 152.49 53.37 166.35 45.19 181.96 44.07 C 186.67 43.50 191.29 44.75 195.94 45.25 C 196.29 44.91 197.01 44.23 197.36 43.88 C 193.59 41.82 189.17 41.75 184.99 41.56 C 171.64 41.61 158.92 46.93 147.72 53.86 M 203.31 56.89 C 202.56 65.77 206.81 74.18 212.16 80.97 C 219.44 90.68 229.92 98.41 233.77 110.37 C 234.97 113.20 234.52 116.60 236.00 119.26 C 236.40 119.13 237.20 118.87 237.60 118.73 C 237.90 111.36 234.38 104.49 230.34 98.55 C 223.54 89.10 214.05 81.63 208.79 71.07 C 206.12 65.41 204.55 58.71 206.70 52.62 C 207.18 51.01 208.10 49.28 207.03 47.68 C 204.17 49.80 203.64 53.59 203.31 56.89 M 241.04 69.85 C 240.78 72.95 241.66 75.97 242.12 79.01 C 242.79 82.99 242.58 87.04 243.11 91.04 C 243.54 90.90 244.42 90.63 244.86 90.50 C 246.12 85.83 244.62 80.80 244.13 76.05 C 243.49 73.90 243.89 70.37 241.04 69.85 M 77.19 106.12 C 74.44 111.18 72.06 116.47 69.99 121.85 C 70.51 121.98 71.56 122.24 72.09 122.37 C 75.15 117.59 77.14 112.16 79.37 106.95 C 79.94 105.18 77.86 104.65 77.19 106.12 Z" />
</g>
<g id="#e0c198ff">
<path fill="#e0c198" opacity="1.00" d=" M 198.09 22.05 C 198.50 22.08 199.32 22.13 199.73 22.16 C 199.49 22.47 199.02 23.09 198.79 23.40 C 198.61 23.07 198.26 22.39 198.09 22.05 Z" />
</g>
<g id="#af6f28ff">
<path fill="#af6f28" opacity="1.00" d=" M 122.54 41.49 C 130.61 33.75 141.78 29.22 152.97 29.26 C 154.35 28.93 154.68 30.49 154.70 31.46 C 145.43 31.47 136.16 34.23 128.61 39.66 C 126.51 41.25 124.51 43.02 122.09 44.13 C 122.20 43.47 122.43 42.15 122.54 41.49 Z" />
</g>
<g id="#af7129ff">
<path fill="#af7129" opacity="1.00" d=" M 147.72 53.86 C 158.92 46.93 171.64 41.61 184.99 41.56 C 189.17 41.75 193.59 41.82 197.36 43.88 C 197.01 44.23 196.29 44.91 195.94 45.25 C 191.29 44.75 186.67 43.50 181.96 44.07 C 166.35 45.19 152.49 53.37 139.73 61.80 C 127.68 69.32 115.34 77.34 101.09 79.77 C 95.68 80.80 90.14 80.73 84.70 80.08 C 84.79 79.57 84.99 78.56 85.09 78.05 C 89.69 77.80 94.34 78.66 98.92 77.66 C 117.25 74.82 132.20 63.09 147.72 53.86 Z" />
<path fill="#af7129" opacity="1.00" d=" M 203.31 56.89 C 203.64 53.59 204.17 49.80 207.03 47.68 C 208.10 49.28 207.18 51.01 206.70 52.62 C 204.55 58.71 206.12 65.41 208.79 71.07 C 214.05 81.63 223.54 89.10 230.34 98.55 C 234.38 104.49 237.90 111.36 237.60 118.73 C 237.20 118.87 236.40 119.13 236.00 119.26 C 234.52 116.60 234.97 113.20 233.77 110.37 C 229.92 98.41 219.44 90.68 212.16 80.97 C 206.81 74.18 202.56 65.77 203.31 56.89 Z" />
</g>
<g id="#fec29bff">
<path fill="#fec29b" opacity="1.00" d=" M 166.78 55.75 C 173.43 52.25 181.38 50.56 188.74 52.67 C 186.31 58.71 184.99 65.37 186.25 71.85 C 187.82 79.74 192.37 86.60 197.20 92.87 C 207.48 106.01 217.79 119.13 228.14 132.20 C 233.46 129.36 239.47 127.23 245.57 128.43 C 258.01 130.59 266.53 144.51 263.69 156.64 C 262.74 162.31 259.27 166.97 256.10 171.59 C 257.53 171.12 258.96 170.62 260.38 170.10 C 256.94 172.84 251.12 172.39 249.03 176.62 C 248.62 176.49 247.80 176.23 247.39 176.10 L 247.40 177.24 C 246.31 177.33 245.32 177.69 244.45 178.33 C 243.20 178.82 241.93 179.24 240.64 179.55 C 236.17 181.32 231.14 180.16 226.45 180.21 C 225.59 183.44 224.37 186.58 222.65 189.46 C 222.15 190.51 221.67 191.59 221.23 192.67 C 219.55 195.35 217.80 197.98 216.04 200.61 C 215.12 201.99 213.52 202.94 213.18 204.66 C 209.46 208.63 205.53 212.39 201.66 216.21 C 199.95 216.63 198.87 218.04 197.69 219.23 C 195.91 219.25 195.23 220.80 194.77 222.26 L 194.58 222.35 C 180.87 229.45 165.39 234.02 149.84 232.18 C 145.90 230.64 141.36 231.26 137.50 229.57 C 134.37 229.03 131.12 228.36 128.51 226.45 C 127.94 226.41 126.80 226.31 126.23 226.26 C 125.84 225.83 125.07 224.95 124.68 224.52 C 122.28 225.01 121.18 222.36 118.97 222.15 C 118.31 220.71 117.02 220.14 115.49 220.37 L 115.77 219.49 C 113.41 219.45 112.58 216.63 110.34 216.19 C 107.12 213.06 103.91 209.91 100.82 206.66 C 98.72 202.70 94.54 199.83 93.48 195.24 L 92.64 195.50 C 92.93 193.82 91.99 192.63 90.75 191.67 C 90.71 191.10 90.62 189.95 90.57 189.37 C 90.13 188.98 89.25 188.21 88.81 187.83 C 87.50 182.58 84.88 177.66 84.00 172.25 C 83.74 169.61 82.68 167.15 82.40 164.52 C 82.06 163.41 81.71 162.30 81.43 161.18 C 79.64 153.64 80.30 145.82 80.39 138.15 C 81.22 122.88 84.64 107.71 90.70 93.66 C 91.11 91.95 93.01 92.03 94.38 91.67 C 111.35 89.01 127.70 82.53 141.99 73.02 C 150.49 67.61 157.78 60.40 166.78 55.75 M 118.16 92.19 C 113.97 93.13 109.66 94.48 106.34 97.31 C 104.64 98.79 104.45 102.19 106.58 103.37 C 110.30 105.58 114.87 105.38 119.02 105.01 C 123.20 104.44 127.57 103.64 131.13 101.25 C 133.25 99.62 135.60 96.21 133.22 93.80 C 128.91 90.63 123.12 91.39 118.16 92.19 M 176.37 95.58 C 174.56 96.08 173.27 98.16 173.97 99.98 C 174.85 104.55 179.25 106.98 182.92 109.14 C 187.46 111.53 192.62 113.72 197.84 112.98 C 200.85 112.66 201.70 109.03 200.23 106.75 C 197.66 102.97 193.73 100.33 189.74 98.24 C 185.62 96.33 180.97 94.29 176.37 95.58 M 116.64 110.84 C 111.42 112.45 109.02 118.80 110.10 123.81 C 110.73 127.85 114.57 131.68 118.89 130.46 C 126.28 128.33 128.09 117.27 122.73 112.21 C 121.14 110.64 118.73 110.37 116.64 110.84 M 147.13 113.98 C 143.27 122.64 140.07 131.59 136.40 140.34 C 134.63 144.49 134.23 149.95 137.57 153.44 C 141.11 157.58 146.74 158.54 151.76 159.72 C 152.08 159.28 152.73 158.39 153.05 157.95 C 148.92 155.95 143.78 156.06 140.38 152.60 C 137.59 150.32 136.62 146.38 138.12 143.08 C 140.87 135.91 143.74 128.78 146.65 121.67 C 147.60 119.19 148.99 116.74 148.91 114.00 C 148.46 114.00 147.57 113.98 147.13 113.98 M 178.33 119.31 C 172.00 122.30 170.48 131.81 175.09 136.89 C 177.81 139.81 182.82 139.20 185.36 136.35 C 188.61 132.55 189.36 126.70 186.89 122.31 C 185.25 119.43 181.42 117.80 178.33 119.31 M 250.68 134.60 C 238.81 143.95 230.27 157.53 227.36 172.40 C 227.94 172.46 229.10 172.58 229.68 172.65 C 232.21 163.25 235.97 153.87 242.47 146.49 C 246.05 144.31 250.58 144.74 254.54 143.64 C 254.70 143.18 255.03 142.26 255.20 141.80 C 252.15 141.24 249.10 141.91 246.10 142.33 C 248.16 139.83 250.87 138.03 253.20 135.81 C 253.32 134.33 251.73 133.62 250.68 134.60 M 100.35 144.49 C 95.37 146.29 91.33 150.40 89.49 155.35 C 87.80 161.31 89.12 168.18 93.17 172.91 C 98.03 178.04 105.97 180.24 112.65 177.67 C 121.42 174.84 126.39 164.24 123.34 155.63 C 120.21 146.60 109.39 141.43 100.35 144.49 M 194.31 144.45 C 182.13 146.40 177.58 163.54 186.07 171.97 C 191.83 178.70 202.95 179.37 209.65 173.72 C 215.80 168.71 217.31 159.23 213.50 152.37 C 209.58 146.03 201.54 142.93 194.31 144.45 M 168.36 174.35 C 159.57 180.04 149.33 183.30 138.95 184.38 C 136.68 184.69 134.27 184.26 132.09 185.05 C 131.79 186.57 132.39 187.30 133.90 187.25 C 146.90 186.84 159.98 183.03 170.77 175.69 C 173.17 174.17 169.44 172.55 168.36 174.35 Z" />
<path fill="#fec29b" opacity="1.00" d=" M 149.86 249.00 C 164.62 251.01 179.62 250.15 194.16 246.96 C 194.37 253.14 193.68 259.47 195.29 265.51 C 199.01 265.72 202.44 267.51 206.16 267.67 C 199.66 278.89 188.25 288.05 175.02 289.24 C 159.74 290.82 144.44 282.08 136.83 268.97 C 138.82 268.78 140.91 268.87 142.70 267.84 C 145.07 267.56 147.31 266.57 149.71 266.60 C 150.33 264.93 150.98 263.10 150.08 261.40 C 149.84 257.27 150.01 253.13 149.86 249.00 Z" />
</g>
<g id="#ad7028ff">
<path fill="#ad7028" opacity="1.00" d=" M 241.04 69.85 C 243.89 70.37 243.49 73.90 244.13 76.05 C 244.62 80.80 246.12 85.83 244.86 90.50 C 244.42 90.63 243.54 90.90 243.11 91.04 C 242.58 87.04 242.79 82.99 242.12 79.01 C 241.66 75.97 240.78 72.95 241.04 69.85 Z" />
</g>
<g id="#b4742cff">
<path fill="#b4742c" opacity="1.00" d=" M 118.16 92.19 C 123.12 91.39 128.91 90.63 133.22 93.80 C 135.60 96.21 133.25 99.62 131.13 101.25 C 127.57 103.64 123.20 104.44 119.02 105.01 C 114.87 105.38 110.30 105.58 106.58 103.37 C 104.45 102.19 104.64 98.79 106.34 97.31 C 109.66 94.48 113.97 93.13 118.16 92.19 Z" />
<path fill="#b4742c" opacity="1.00" d=" M 176.37 95.58 C 180.97 94.29 185.62 96.33 189.74 98.24 C 193.73 100.33 197.66 102.97 200.23 106.75 C 201.70 109.03 200.85 112.66 197.84 112.98 C 192.62 113.72 187.46 111.53 182.92 109.14 C 179.25 106.98 174.85 104.55 173.97 99.98 C 173.27 98.16 174.56 96.08 176.37 95.58 Z" />
</g>
<g id="#b6772fff">
<path fill="#b6772f" opacity="1.00" d=" M 77.19 106.12 C 77.86 104.65 79.94 105.18 79.37 106.95 C 77.14 112.16 75.15 117.59 72.09 122.37 C 71.56 122.24 70.51 121.98 69.99 121.85 C 72.06 116.47 74.44 111.18 77.19 106.12 Z" />
</g>
<g id="#331615ff">
<path fill="#331615" opacity="1.00" d=" M 116.64 110.84 C 118.73 110.37 121.14 110.64 122.73 112.21 C 128.09 117.27 126.28 128.33 118.89 130.46 C 114.57 131.68 110.73 127.85 110.10 123.81 C 109.02 118.80 111.42 112.45 116.64 110.84 Z" />
</g>
<g id="#cd6a3eff">
<path fill="#cd6a3e" opacity="1.00" d=" M 147.13 113.98 C 147.57 113.98 148.46 114.00 148.91 114.00 C 148.99 116.74 147.60 119.19 146.65 121.67 C 143.74 128.78 140.87 135.91 138.12 143.08 C 136.62 146.38 137.59 150.32 140.38 152.60 C 143.78 156.06 148.92 155.95 153.05 157.95 C 152.73 158.39 152.08 159.28 151.76 159.72 C 146.74 158.54 141.11 157.58 137.57 153.44 C 134.23 149.95 134.63 144.49 136.40 140.34 C 140.07 131.59 143.27 122.64 147.13 113.98 Z" />
</g>
<g id="#341514ff">
<path fill="#341514" opacity="1.00" d=" M 178.33 119.31 C 181.42 117.80 185.25 119.43 186.89 122.31 C 189.36 126.70 188.61 132.55 185.36 136.35 C 182.82 139.20 177.81 139.81 175.09 136.89 C 170.48 131.81 172.00 122.30 178.33 119.31 Z" />
</g>
<g id="#d86c3fff">
<path fill="#d86c3f" opacity="1.00" d=" M 250.68 134.60 C 251.73 133.62 253.32 134.33 253.20 135.81 C 250.87 138.03 248.16 139.83 246.10 142.33 C 249.10 141.91 252.15 141.24 255.20 141.80 C 255.03 142.26 254.70 143.18 254.54 143.64 C 250.58 144.74 246.05 144.31 242.47 146.49 C 235.97 153.87 232.21 163.25 229.68 172.65 C 229.10 172.58 227.94 172.46 227.36 172.40 C 230.27 157.53 238.81 143.95 250.68 134.60 Z" />
</g>
<g id="#fc986eff">
<path fill="#fc986e" opacity="1.00" d=" M 100.35 144.49 C 109.39 141.43 120.21 146.60 123.34 155.63 C 126.39 164.24 121.42 174.84 112.65 177.67 C 105.97 180.24 98.03 178.04 93.17 172.91 C 89.12 168.18 87.80 161.31 89.49 155.35 C 91.33 150.40 95.37 146.29 100.35 144.49 Z" />
<path fill="#fc986e" opacity="1.00" d=" M 194.31 144.45 C 201.54 142.93 209.58 146.03 213.50 152.37 C 217.31 159.23 215.80 168.71 209.65 173.72 C 202.95 179.37 191.83 178.70 186.07 171.97 C 177.58 163.54 182.13 146.40 194.31 144.45 Z" />
<path fill="#fc986e" opacity="1.00" d=" M 149.84 232.18 C 165.39 234.02 180.87 229.45 194.58 222.35 C 194.46 230.55 194.07 238.75 194.16 246.96 C 179.62 250.15 164.62 251.01 149.86 249.00 C 149.77 243.39 149.73 237.79 149.84 232.18 Z" />
</g>
<g id="#d1693cff">
<path fill="#d1693c" opacity="1.00" d=" M 168.36 174.35 C 169.44 172.55 173.17 174.17 170.77 175.69 C 159.98 183.03 146.90 186.84 133.90 187.25 C 132.39 187.30 131.79 186.57 132.09 185.05 C 134.27 184.26 136.68 184.69 138.95 184.38 C 149.33 183.30 159.57 180.04 168.36 174.35 Z" />
</g>
<g id="#feaa49ff">
<path fill="#feaa49" opacity="1.00" d=" M 206.16 267.67 C 206.67 266.86 207.19 266.06 207.73 265.28 C 227.37 270.41 246.31 279.78 260.70 294.32 C 262.94 296.70 265.57 298.85 266.89 301.93 C 257.22 309.36 247.07 316.27 236.02 321.51 C 234.34 316.56 231.88 311.92 229.94 307.07 C 229.41 305.40 228.23 304.15 226.70 303.33 C 227.44 309.92 231.58 315.52 233.71 321.72 C 232.05 322.90 230.38 324.07 228.59 325.04 C 193.55 340.45 152.89 342.77 116.44 331.02 C 114.84 330.43 113.26 329.78 111.67 329.17 C 113.66 322.29 116.93 315.78 118.34 308.74 C 117.82 308.81 116.79 308.94 116.28 309.00 C 113.81 315.58 111.59 322.26 109.30 328.91 C 95.92 323.29 82.36 317.31 70.95 308.18 C 73.62 304.19 76.93 300.70 80.47 297.48 C 96.62 283.82 115.38 273.14 135.66 266.99 C 135.95 267.49 136.54 268.47 136.83 268.97 C 144.44 282.08 159.74 290.82 175.02 289.24 C 188.25 288.05 199.66 278.89 206.16 267.67 M 219.24 270.75 C 209.39 289.06 188.79 301.01 167.99 300.34 C 150.60 299.63 133.75 290.53 123.74 276.28 C 123.07 275.34 122.42 274.27 121.18 274.07 C 119.66 275.34 121.17 276.91 121.95 278.04 C 133.81 294.58 154.59 304.31 174.91 302.43 C 194.13 300.70 212.14 288.97 221.37 271.99 C 220.84 271.68 219.78 271.06 219.24 270.75 Z" />
</g>
<g id="#341305ff">
<path fill="#341305" opacity="1.00" d=" M 219.24 270.75 C 219.78 271.06 220.84 271.68 221.37 271.99 C 212.14 288.97 194.13 300.70 174.91 302.43 C 154.59 304.31 133.81 294.58 121.95 278.04 C 121.17 276.91 119.66 275.34 121.18 274.07 C 122.42 274.27 123.07 275.34 123.74 276.28 C 133.75 290.53 150.60 299.63 167.99 300.34 C 188.79 301.01 209.39 289.06 219.24 270.75 Z" />
</g>
<g id="#311005ff">
<path fill="#311005" opacity="1.00" d=" M 226.70 303.33 C 228.23 304.15 229.41 305.40 229.94 307.07 C 231.88 311.92 234.34 316.56 236.02 321.51 L 235.53 322.43 C 235.07 322.25 234.16 321.90 233.71 321.72 C 231.58 315.52 227.44 309.92 226.70 303.33 Z" />
</g>
<g id="#280e06ff">
<path fill="#280e06" opacity="1.00" d=" M 116.28 309.00 C 116.79 308.94 117.82 308.81 118.34 308.74 C 116.93 315.78 113.66 322.29 111.67 329.17 C 110.72 329.65 109.76 330.11 108.79 330.55 L 109.30 328.91 C 111.59 322.26 113.81 315.58 116.28 309.00 Z" />
</g>
<g id="#9d774ab1">
<path fill="#9d774a" opacity="0.69" d=" M 233.71 321.72 C 234.16 321.90 235.07 322.25 235.53 322.43 C 233.15 323.12 230.94 324.28 228.59 325.04 C 230.38 324.07 232.05 322.90 233.71 321.72 Z" />
</g>
<g id="#56473a6d">
<path fill="#56473a" opacity="0.43" d=" M 108.79 330.55 C 109.76 330.11 110.72 329.65 111.67 329.17 C 113.26 329.78 114.84 330.43 116.44 331.02 C 113.81 329.86 111.34 330.81 108.79 330.55 Z" />
</g>
</svg>
