<?xml version="1.0" encoding="UTF-8" ?>
<!DOCTYPE svg PUBLIC "-//W3C//DTD SVG 1.1//EN" "http://www.w3.org/Graphics/SVG/1.1/DTD/svg11.dtd">
<svg width="645pt" height="510pt" viewBox="0 0 645 510" version="1.1" xmlns="http://www.w3.org/2000/svg">
<g id="#251a5eff">
<path fill="#251a5e" opacity="1.00" d=" M 487.14 33.33 C 489.44 28.55 494.80 26.01 500.02 26.76 C 507.97 28.06 515.89 30.84 522.36 35.77 C 522.11 36.30 521.63 37.36 521.38 37.89 C 522.60 38.48 523.82 37.01 523.90 35.87 C 527.51 36.97 531.73 37.56 533.77 41.25 C 536.02 43.76 534.30 46.93 533.73 49.73 C 532.95 52.81 530.98 55.50 530.83 58.76 C 529.57 59.42 527.71 59.81 527.39 61.45 C 526.44 64.66 526.05 68.01 525.06 71.21 C 523.62 75.02 521.52 78.57 518.90 81.68 C 514.42 83.90 509.82 86.12 504.78 86.63 C 504.38 87.38 503.90 88.08 503.35 88.71 C 503.48 88.06 503.75 86.75 503.88 86.09 C 501.28 84.71 497.89 85.62 495.62 83.38 C 491.60 79.82 491.73 74.28 491.55 69.38 C 493.88 69.30 496.20 69.26 498.54 69.25 C 498.15 68.06 497.80 66.88 497.44 65.69 C 498.38 64.82 499.33 63.94 500.28 63.06 C 500.73 62.07 501.21 61.08 501.70 60.11 C 501.82 63.43 497.49 64.93 498.43 68.21 C 501.37 70.33 505.37 68.90 508.49 70.68 C 510.51 71.49 512.65 73.46 514.92 72.19 C 518.93 70.41 520.79 66.01 521.72 61.99 C 520.80 59.08 519.85 56.15 518.73 53.31 C 517.13 51.53 515.44 49.82 514.26 47.71 C 511.24 47.99 508.44 45.27 505.53 46.73 C 501.48 48.63 497.20 50.00 492.76 50.58 C 492.80 53.45 492.69 56.32 492.27 59.16 C 492.67 56.04 492.92 52.71 490.39 50.36 C 486.01 45.98 484.40 39.02 487.14 33.33 M 523.59 48.74 C 525.17 51.54 527.34 54.49 530.58 55.43 C 529.11 52.64 526.99 49.14 523.59 48.74 M 521.62 51.86 C 522.94 54.54 525.17 56.63 527.38 58.59 C 527.80 58.47 528.65 58.23 529.08 58.11 C 526.75 55.92 525.19 52.01 521.62 51.86 M 495.16 72.53 C 495.45 74.65 496.57 77.38 499.07 77.52 C 501.57 77.82 502.75 75.01 504.27 73.56 C 501.30 72.70 498.21 72.69 495.16 72.53 Z" />
<path fill="#251a5e" opacity="1.00" d=" M 493.99 54.37 C 495.56 54.27 497.13 54.25 498.72 54.24 C 498.70 54.52 498.66 55.09 498.64 55.37 C 497.04 55.24 495.31 55.43 493.99 54.37 Z" />
<path fill="#251a5e" opacity="1.00" d=" M 505.11 54.53 C 506.76 54.84 509.49 54.65 509.90 56.79 C 508.22 56.26 506.26 55.99 505.11 54.53 Z" />
<path fill="#251a5e" opacity="1.00" d=" M 70.17 70.26 C 74.06 63.13 82.47 60.24 90.02 58.92 C 93.72 59.78 97.64 59.96 101.04 61.82 C 103.80 63.14 105.09 66.05 106.87 68.35 C 108.32 72.13 108.36 76.19 108.06 80.17 C 106.46 80.18 104.86 80.28 103.27 80.41 C 103.36 80.21 103.54 79.81 103.64 79.61 C 104.74 79.15 105.85 78.70 106.96 78.28 C 104.26 73.69 100.14 69.87 94.86 68.58 C 94.77 69.92 94.69 71.25 94.61 72.59 C 93.69 74.81 92.91 77.09 92.32 79.42 C 92.36 77.85 92.37 76.27 92.38 74.70 L 91.35 74.65 C 90.36 80.52 87.89 86.40 83.28 90.34 C 80.79 91.65 78.05 92.38 75.47 93.49 C 73.65 94.01 71.29 94.79 71.44 97.13 C 71.00 100.91 74.23 103.49 77.29 104.94 C 78.19 110.66 79.00 116.39 79.60 122.15 C 71.78 122.32 63.73 123.66 57.14 128.13 C 50.30 132.59 45.04 139.42 42.33 147.12 C 43.03 141.81 39.49 136.64 41.25 131.31 C 43.01 120.33 51.09 112.15 57.88 103.97 C 66.35 94.63 63.28 80.41 70.17 70.26 M 92.35 67.33 C 91.73 69.26 91.39 71.69 92.14 73.61 C 93.71 72.63 93.53 68.43 92.35 67.33 Z" />
<path fill="#251a5e" opacity="1.00" d=" M 83.52 92.38 C 84.00 92.46 84.95 92.62 85.43 92.71 C 83.52 93.99 81.47 95.03 79.40 96.01 C 78.91 95.43 77.95 94.26 77.46 93.67 C 78.57 93.77 79.68 93.86 80.80 93.95 C 81.70 93.42 82.61 92.90 83.52 92.38 Z" />
<path fill="#251a5e" opacity="1.00" d=" M 112.30 100.04 C 112.64 101.21 112.98 102.39 113.33 103.57 C 114.99 104.12 116.20 105.40 117.38 106.62 C 119.82 109.25 122.92 111.45 124.18 114.96 C 125.53 118.30 127.97 121.31 128.14 125.03 C 121.53 119.15 112.28 120.29 104.18 120.97 L 103.30 121.05 C 102.71 117.49 102.03 113.96 101.23 110.44 C 104.92 110.15 109.22 109.82 111.60 106.56 C 113.27 104.76 112.70 102.19 112.30 100.04 Z" />
<path fill="#251a5e" opacity="1.00" d=" M 188.83 124.93 C 190.79 125.90 192.62 127.13 194.22 128.63 C 192.64 127.83 191.11 126.94 189.63 125.99 L 188.83 124.93 Z" />
<path fill="#251a5e" opacity="1.00" d=" M 187.94 136.31 C 190.13 137.23 192.22 138.37 194.17 139.73 C 192.96 139.37 191.75 138.96 190.56 138.56 C 189.67 137.82 188.81 137.05 187.94 136.31 Z" />
<path fill="#251a5e" opacity="1.00" d=" M 192.49 144.38 C 194.49 148.77 189.36 152.52 185.28 151.46 C 187.07 150.99 189.01 150.76 190.58 149.71 C 192.31 148.49 192.22 146.24 192.49 144.38 Z" />
<path fill="#251a5e" opacity="1.00" d=" M 483.10 443.02 C 484.07 441.66 485.63 442.49 486.89 442.87 C 498.58 449.48 510.73 455.22 522.46 461.76 C 522.72 462.02 523.24 462.56 523.50 462.83 C 521.99 469.76 521.87 476.95 520.12 483.84 L 519.26 484.47 C 519.22 485.77 519.19 487.07 519.18 488.39 C 511.78 487.20 504.70 483.56 497.09 484.18 C 497.26 482.49 497.44 480.81 497.62 479.13 C 493.49 479.22 490.27 483.36 486.08 482.24 C 468.14 477.84 450.15 473.66 432.23 469.20 C 438.68 459.13 450.37 453.29 462.06 452.21 C 465.04 451.86 466.68 454.93 469.00 456.26 C 467.60 454.43 465.04 453.11 465.12 450.51 C 466.70 450.63 468.28 450.76 469.87 450.90 C 471.20 452.03 472.55 453.15 473.94 454.23 C 472.87 452.92 471.79 451.63 470.75 450.31 C 471.85 449.74 472.94 449.14 474.00 448.49 C 477.85 451.07 481.39 454.09 485.22 456.70 C 482.65 453.46 478.60 451.89 475.95 448.77 C 477.82 446.36 480.91 445.15 483.10 443.02 Z" />
<path fill="#251a5e" opacity="1.00" d=" M 374.08 443.63 C 374.82 443.98 375.57 444.34 376.32 444.70 C 387.44 450.38 398.40 456.36 409.56 461.95 C 409.41 469.38 408.14 476.82 406.64 484.09 C 406.09 485.70 405.53 489.05 403.10 487.99 C 396.56 486.63 390.16 483.57 383.38 484.22 C 383.45 482.24 383.53 480.26 383.61 478.30 C 380.79 479.88 377.67 480.92 375.03 482.82 C 374.70 484.32 377.05 483.86 377.91 484.11 C 379.59 484.23 381.29 484.24 382.98 484.22 C 380.07 484.34 377.15 484.60 374.33 485.36 C 374.14 484.03 374.05 482.70 373.96 481.38 C 367.12 479.85 360.28 478.30 353.50 476.51 C 342.47 474.53 331.80 470.65 320.72 469.01 C 321.16 465.82 324.61 463.80 326.96 461.83 C 332.17 457.31 338.84 454.97 345.48 453.49 C 346.84 453.09 348.64 453.10 349.27 451.58 C 352.02 454.86 355.46 457.68 359.45 459.30 C 357.65 456.23 354.57 454.31 351.79 452.23 C 353.10 451.86 354.92 452.11 355.34 450.44 C 358.26 453.60 361.67 456.36 365.56 458.24 C 364.12 454.91 360.69 453.20 357.93 451.13 C 359.04 450.67 360.15 450.21 361.26 449.73 C 364.52 452.29 367.81 454.84 371.29 457.09 C 370.41 453.19 365.88 451.69 363.26 449.04 C 365.56 447.24 368.28 446.01 370.35 443.92 C 371.58 443.81 372.83 443.73 374.08 443.63 Z" />
</g>
<g id="#675f8fff">
<path fill="#675f8f" opacity="1.00" d=" M 522.36 35.77 C 522.74 35.80 523.51 35.85 523.90 35.87 C 523.82 37.01 522.60 38.48 521.38 37.89 C 521.63 37.36 522.11 36.30 522.36 35.77 Z" />
<path fill="#675f8f" opacity="1.00" d=" M 355.34 450.44 C 355.99 450.61 357.28 450.95 357.93 451.13 C 360.69 453.20 364.12 454.91 365.56 458.24 C 361.67 456.36 358.26 453.60 355.34 450.44 Z" />
</g>
<g id="#fda7a8ff">
<path fill="#fda7a8" opacity="1.00" d=" M 505.53 46.73 C 508.44 45.27 511.24 47.99 514.26 47.71 C 515.44 49.82 517.13 51.53 518.73 53.31 C 519.85 56.15 520.80 59.08 521.72 61.99 C 520.79 66.01 518.93 70.41 514.92 72.19 C 512.65 73.46 510.51 71.49 508.49 70.68 C 505.37 68.90 501.37 70.33 498.43 68.21 C 497.49 64.93 501.82 63.43 501.70 60.11 C 501.21 61.08 500.73 62.07 500.28 63.06 C 499.33 63.94 498.38 64.82 497.44 65.69 C 497.80 66.88 498.15 68.06 498.54 69.25 C 496.20 69.26 493.88 69.30 491.55 69.38 C 491.60 65.96 491.81 62.54 492.27 59.16 C 492.69 56.32 492.80 53.45 492.76 50.58 C 497.20 50.00 501.48 48.63 505.53 46.73 M 493.99 54.37 C 495.31 55.43 497.04 55.24 498.64 55.37 C 498.66 55.09 498.70 54.52 498.72 54.24 C 497.13 54.25 495.56 54.27 493.99 54.37 M 505.11 54.53 C 506.26 55.99 508.22 56.26 509.90 56.79 C 509.49 54.65 506.76 54.84 505.11 54.53 M 495.97 58.06 C 495.48 59.67 496.06 60.19 497.71 59.62 C 498.20 58.01 497.62 57.49 495.97 58.06 M 505.18 58.41 C 503.48 59.40 505.49 61.62 506.87 60.60 C 508.62 59.62 506.59 57.26 505.18 58.41 Z" />
<path fill="#fda7a8" opacity="1.00" d=" M 94.86 68.58 C 100.14 69.87 104.26 73.69 106.96 78.28 C 105.85 78.70 104.74 79.15 103.64 79.61 C 103.54 79.81 103.36 80.21 103.27 80.41 C 102.71 81.92 102.20 83.44 101.69 84.97 C 100.23 84.25 98.78 83.53 97.29 82.90 C 96.83 82.73 95.91 82.39 95.45 82.22 L 94.11 81.75 C 94.90 78.76 95.24 75.65 94.61 72.59 C 94.69 71.25 94.77 69.92 94.86 68.58 Z" />
<path fill="#fda7a8" opacity="1.00" d=" M 518.90 81.68 C 521.52 78.57 523.62 75.02 525.06 71.21 C 528.43 78.75 523.55 87.15 525.87 94.88 C 527.44 99.19 524.77 103.80 522.23 107.20 C 518.01 113.07 508.12 112.75 504.08 106.88 C 501.65 103.35 501.56 98.89 501.79 94.77 C 502.20 95.28 503.04 96.30 503.46 96.81 C 508.59 91.76 513.87 86.84 518.90 81.68 Z" />
<path fill="#fda7a8" opacity="1.00" d=" M 104.69 89.27 C 106.26 89.24 107.84 89.22 109.42 89.19 L 109.81 89.19 C 110.39 92.86 111.48 96.42 112.30 100.04 C 112.70 102.19 113.27 104.76 111.60 106.56 C 109.22 109.82 104.92 110.15 101.23 110.44 C 96.38 110.34 91.67 109.13 86.95 108.11 C 92.07 112.79 97.19 117.70 103.30 121.05 C 103.03 124.16 102.70 127.27 102.06 130.33 C 100.73 132.55 98.55 134.18 96.13 135.07 C 92.23 135.53 88.31 134.79 84.74 133.20 C 81.49 130.48 80.04 126.25 79.60 122.15 C 79.00 116.39 78.19 110.66 77.29 104.94 C 74.23 103.49 71.00 100.91 71.44 97.13 C 71.29 94.79 73.65 94.01 75.47 93.49 C 75.96 93.54 76.96 93.63 77.46 93.67 C 77.95 94.26 78.91 95.43 79.40 96.01 C 81.47 95.03 83.52 93.99 85.43 92.71 C 85.92 92.18 86.41 91.64 86.88 91.08 C 88.82 90.77 90.76 90.47 92.70 90.18 C 95.33 93.47 100.22 93.63 102.40 89.76 C 103.39 90.42 104.41 91.06 105.33 91.82 C 105.63 93.13 104.24 94.17 103.87 95.34 C 105.01 94.69 106.60 94.39 107.00 92.94 C 107.32 91.23 105.68 90.32 104.69 89.27 M 73.59 99.22 C 73.83 98.48 74.32 96.99 74.56 96.25 C 75.85 96.47 77.13 96.77 78.40 97.10 C 78.06 96.52 77.38 95.34 77.04 94.75 C 74.61 94.08 70.60 97.44 73.59 99.22 M 99.21 99.93 C 101.01 101.46 103.37 103.37 105.89 102.25 C 107.97 100.96 107.84 98.36 107.84 96.23 C 104.88 97.25 101.93 98.36 99.21 99.93 M 76.40 98.03 C 76.07 99.37 76.61 99.89 78.04 99.58 C 78.38 98.22 77.83 97.71 76.40 98.03 Z" />
<path fill="#fda7a8" opacity="1.00" d=" M 355.26 103.78 C 353.49 101.50 357.34 98.60 359.04 100.94 C 365.87 108.47 373.05 115.90 381.96 121.01 C 382.01 117.73 381.64 114.43 382.10 111.18 C 382.92 109.27 385.87 109.23 386.81 111.06 C 387.41 113.66 387.59 116.33 387.94 118.97 C 388.48 124.17 390.12 129.25 389.67 134.53 C 402.75 143.08 416.10 151.21 429.20 159.74 C 431.56 161.24 433.85 162.88 436.43 163.98 C 438.51 159.03 440.82 154.18 443.14 149.33 C 449.28 151.25 455.33 153.43 461.45 155.44 C 465.45 156.79 469.44 158.16 473.45 159.50 C 473.69 163.19 474.32 166.84 474.68 170.53 C 474.36 171.09 473.71 172.21 473.38 172.77 C 469.24 180.55 466.01 188.83 461.21 196.24 C 456.88 201.59 449.49 206.23 442.45 203.61 C 436.70 201.42 431.10 198.57 426.34 194.64 C 410.55 180.41 394.72 166.23 378.98 151.95 C 374.17 147.31 368.50 143.74 363.16 139.77 C 357.59 135.57 350.70 133.15 345.85 128.02 C 345.90 127.54 345.99 126.58 346.04 126.10 C 348.92 125.04 351.38 128.40 353.99 129.41 C 355.98 130.59 357.99 131.75 359.98 132.94 C 363.30 127.46 367.74 122.89 372.18 118.33 C 371.10 118.57 370.03 118.82 368.96 119.08 C 367.85 118.11 366.74 117.14 365.67 116.14 C 361.81 112.38 358.54 108.04 355.26 103.78 M 376.97 136.02 C 378.18 138.15 379.42 141.04 382.23 141.25 C 380.11 138.11 377.08 135.08 377.24 131.01 C 377.30 127.34 380.01 124.59 381.44 121.42 C 376.34 123.80 374.45 131.14 376.97 136.02 Z" />
<path fill="#fda7a8" opacity="1.00" d=" M 348.69 110.35 C 347.16 109.04 348.29 106.58 349.99 106.10 C 351.39 105.52 352.44 106.84 353.38 107.65 C 357.35 111.32 360.72 115.71 365.36 118.60 C 366.27 119.21 367.18 119.82 368.11 120.44 C 366.74 122.15 365.22 123.74 363.55 125.15 C 361.66 123.21 359.62 121.42 357.52 119.71 C 354.37 116.80 351.59 113.50 348.69 110.35 Z" />
<path fill="#fda7a8" opacity="1.00" d=" M 344.48 116.52 C 342.47 114.82 344.66 111.47 347.01 112.49 C 349.62 114.26 351.82 116.65 353.87 119.06 C 356.09 122.32 359.73 124.10 362.86 126.33 C 361.81 127.95 360.77 129.57 359.71 131.18 C 357.38 129.19 355.50 126.68 352.91 124.99 C 349.81 122.48 347.24 119.38 344.48 116.52 Z" />
<path fill="#fda7a8" opacity="1.00" d=" M 181.85 116.56 C 183.23 117.11 184.60 117.69 185.99 118.25 C 186.38 118.42 187.16 118.75 187.55 118.91 C 191.02 120.84 194.67 122.50 197.85 124.91 C 202.72 128.70 206.99 134.43 206.10 140.95 C 205.19 146.72 203.98 152.45 202.78 158.18 C 196.93 157.23 191.02 156.68 185.14 155.97 C 183.69 154.98 184.05 152.80 183.35 151.37 L 184.86 151.44 L 185.28 151.46 C 189.36 152.52 194.49 148.77 192.49 144.38 C 189.38 143.00 185.98 142.02 183.32 139.82 C 183.21 139.31 183.00 138.29 182.89 137.78 C 185.46 137.33 188.04 138.11 190.56 138.56 C 191.75 138.96 192.96 139.37 194.17 139.73 C 192.22 138.37 190.13 137.23 187.94 136.31 C 186.07 135.45 184.16 134.58 182.11 134.28 C 181.23 132.90 180.46 131.43 180.37 129.76 C 183.22 130.56 186.09 131.28 189.01 131.74 C 190.72 132.71 192.44 133.68 194.19 134.57 C 192.21 132.78 189.93 131.35 187.47 130.33 C 184.55 128.22 178.63 126.95 179.49 122.36 C 182.84 123.63 186.21 124.90 189.63 125.99 C 191.11 126.94 192.64 127.83 194.22 128.63 C 192.62 127.13 190.79 125.90 188.83 124.93 C 186.21 123.22 183.35 121.64 181.65 118.91 C 181.70 118.32 181.80 117.14 181.85 116.56 Z" />
<path fill="#fda7a8" opacity="1.00" d=" M 482.01 122.86 C 480.22 120.24 485.02 117.98 486.43 120.57 C 493.04 127.90 500.01 135.14 508.69 140.07 C 508.72 137.04 508.50 134.00 508.83 130.98 C 509.31 128.03 514.23 128.60 514.19 131.55 C 515.00 138.99 516.58 146.33 516.94 153.81 C 521.91 157.57 527.56 160.33 532.84 163.64 C 540.72 168.15 548.29 173.24 556.43 177.28 C 555.90 171.34 555.46 165.33 553.90 159.57 L 555.24 159.55 C 566.08 159.25 576.93 159.62 587.77 159.38 C 588.78 165.66 589.64 171.96 590.83 178.21 C 592.12 187.40 593.07 196.74 592.16 206.01 C 591.22 214.02 584.09 220.52 576.03 220.77 C 566.22 222.12 557.89 215.62 550.98 209.56 C 538.72 199.22 526.45 188.90 514.37 178.37 C 507.55 172.57 500.86 166.60 493.42 161.61 C 487.38 156.76 480.24 153.59 474.06 148.95 C 472.33 147.74 471.93 145.47 474.26 144.62 C 477.24 146.55 480.30 148.39 483.71 149.45 C 484.83 150.15 485.94 150.84 487.07 151.53 C 485.77 150.30 484.40 149.15 483.05 147.98 C 480.15 145.10 477.30 142.16 474.46 139.22 C 474.06 138.81 473.26 137.99 472.86 137.58 C 470.50 136.01 469.37 132.26 473.01 131.46 C 478.60 134.00 481.45 140.24 487.01 142.97 C 483.71 137.36 478.04 133.61 474.56 128.09 C 474.88 127.45 475.51 126.15 475.82 125.51 C 476.88 125.62 478.12 125.17 479.07 125.82 C 484.39 129.92 487.99 136.47 494.65 138.67 C 490.70 133.20 485.71 128.52 482.01 122.86 Z" />
<path fill="#fda7a8" opacity="1.00" d=" M 441.59 143.99 C 441.84 144.08 442.32 144.25 442.57 144.34 C 449.67 146.72 456.74 149.20 463.87 151.47 C 463.77 151.61 463.58 151.90 463.48 152.05 C 457.09 150.57 451.06 147.91 444.80 146.02 C 442.89 145.07 442.15 147.65 441.12 148.67 C 441.42 147.13 442.10 145.56 441.59 143.99 Z" />
<path fill="#fda7a8" opacity="1.00" d=" M 176.04 169.66 C 179.41 167.52 182.07 163.47 186.14 162.96 C 186.92 166.59 184.04 169.45 182.06 172.11 C 179.77 174.67 178.96 178.13 176.83 180.79 C 174.42 183.93 171.38 186.52 168.13 188.75 C 165.68 190.40 163.23 192.05 160.81 193.74 C 156.31 196.83 151.82 199.91 147.31 202.98 C 145.78 203.91 144.22 204.79 142.68 205.69 C 140.28 199.49 138.14 193.19 136.02 186.89 C 134.79 184.75 137.71 184.18 138.87 183.15 C 143.62 180.35 146.94 175.76 151.53 172.74 C 153.47 171.20 155.29 169.50 157.37 168.15 C 159.14 167.44 159.45 169.87 159.17 171.05 C 158.80 174.96 155.69 177.79 154.41 181.38 C 162.17 178.61 169.41 174.53 176.04 169.66 Z" />
<path fill="#fda7a8" opacity="1.00" d=" M 255.34 377.10 C 264.18 373.08 273.14 369.28 281.79 364.88 C 283.13 367.44 284.38 370.05 285.58 372.67 C 284.17 373.66 282.70 374.56 281.13 375.26 C 277.80 376.76 274.34 377.91 270.86 379.00 C 269.26 379.54 267.69 380.16 266.13 380.78 C 263.37 381.85 260.60 382.88 257.82 383.87 C 256.39 381.86 254.93 379.69 255.34 377.10 Z" />
<path fill="#fda7a8" opacity="1.00" d=" M 377.85 439.71 C 389.70 441.84 401.52 444.15 413.38 446.21 C 412.25 451.48 409.42 456.48 409.56 461.95 C 398.40 456.36 387.44 450.38 376.32 444.70 C 376.82 443.03 377.33 441.37 377.85 439.71 Z" />
<path fill="#fda7a8" opacity="1.00" d=" M 149.05 440.40 C 159.70 440.87 170.34 441.59 180.97 442.40 C 180.30 444.46 179.64 446.54 179.02 448.63 C 172.19 449.08 165.34 448.29 158.51 448.84 L 157.51 448.67 C 157.43 452.17 157.64 455.67 157.40 459.17 L 157.34 460.16 C 156.40 456.39 156.87 452.48 156.71 448.65 C 152.54 448.63 148.38 448.46 144.21 448.60 C 145.10 448.14 146.04 447.83 147.03 447.66 C 147.84 445.28 148.49 442.84 149.05 440.40 Z" />
<path fill="#fda7a8" opacity="1.00" d=" M 487.14 440.44 C 499.36 442.53 511.59 444.55 523.80 446.72 C 523.59 451.75 523.07 456.76 522.46 461.76 C 510.73 455.22 498.58 449.48 486.89 442.87 C 486.95 442.26 487.07 441.05 487.14 440.44 Z" />
</g>
<g id="#5d5486ff">
<path fill="#5d5486" opacity="1.00" d=" M 523.59 48.74 C 526.99 49.14 529.11 52.64 530.58 55.43 C 527.34 54.49 525.17 51.54 523.59 48.74 Z" />
</g>
<g id="#585083ff">
<path fill="#585083" opacity="1.00" d=" M 521.62 51.86 C 525.19 52.01 526.75 55.92 529.08 58.11 C 528.65 58.23 527.80 58.47 527.38 58.59 C 525.17 56.63 522.94 54.54 521.62 51.86 Z" />
</g>
<g id="#724c6eff">
<path fill="#724c6e" opacity="1.00" d=" M 495.97 58.06 C 497.62 57.49 498.20 58.01 497.71 59.62 C 496.06 60.19 495.48 59.67 495.97 58.06 Z" />
</g>
<g id="#0f0945ff">
<path fill="#0f0945" opacity="1.00" d=" M 505.18 58.41 C 506.59 57.26 508.62 59.62 506.87 60.60 C 505.49 61.62 503.48 59.40 505.18 58.41 Z" />
<path fill="#0f0945" opacity="1.00" d=" M 97.30 86.95 C 98.96 86.39 99.50 86.94 98.92 88.58 C 97.32 89.09 96.78 88.55 97.30 86.95 Z" />
<path fill="#0f0945" opacity="1.00" d=" M 72.51 164.93 C 73.25 173.93 72.45 182.99 73.10 191.99 C 73.18 195.35 75.97 198.05 79.11 198.83 C 82.36 200.02 85.70 198.63 88.84 197.75 C 100.48 194.24 112.18 190.92 123.83 187.43 C 105.96 194.17 87.83 200.32 69.88 206.86 C 66.76 208.19 65.12 211.49 62.12 213.03 C 63.70 211.27 65.43 209.65 67.15 208.03 C 68.80 193.65 70.90 179.32 72.51 164.93 Z" />
<path fill="#0f0945" opacity="1.00" d=" M 118.97 222.29 C 121.67 222.27 124.39 222.40 127.01 223.10 C 138.94 225.99 151.46 227.60 162.36 233.61 C 176.17 240.85 186.38 253.82 191.64 268.36 C 206.53 307.55 221.33 346.75 236.21 385.94 L 235.27 385.75 C 227.88 366.78 220.90 347.64 213.55 328.66 C 212.55 335.07 212.60 341.57 212.13 348.03 C 210.92 365.49 210.24 382.99 208.80 400.43 C 206.64 391.33 205.31 382.06 203.64 372.87 C 200.20 355.55 197.23 338.13 193.33 320.90 C 188.92 300.65 184.61 280.23 177.18 260.83 C 173.94 251.94 167.11 244.92 159.41 239.67 C 147.18 231.40 133.25 225.90 118.97 222.29 Z" />
<path fill="#0f0945" opacity="1.00" d=" M 288.56 373.84 C 291.99 377.09 293.11 382.09 296.80 385.20 C 301.01 390.22 307.58 392.25 313.86 393.10 C 319.01 394.60 324.37 395.19 329.52 396.61 C 335.02 397.52 340.57 398.49 345.95 399.96 C 349.08 400.64 351.03 403.21 352.26 406.00 C 351.20 408.63 349.09 411.13 345.99 411.05 C 320.65 411.07 295.30 411.09 269.96 411.12 C 265.94 411.33 263.18 407.84 259.56 406.74 C 257.91 404.16 257.21 401.17 256.85 398.17 C 256.32 393.86 255.15 389.59 255.28 385.23 C 256.08 384.69 256.92 384.23 257.82 383.87 C 260.60 382.88 263.37 381.85 266.13 380.78 C 266.74 380.84 267.96 380.97 268.57 381.03 C 271.34 386.05 273.41 393.37 280.05 394.22 C 284.47 395.22 289.22 391.56 288.87 386.95 C 287.84 382.84 285.51 379.21 283.92 375.32 L 284.60 375.02 C 286.10 375.07 287.42 374.68 288.56 373.84 Z" />
<path fill="#0f0945" opacity="1.00" d=" M 270.86 379.00 C 274.34 377.91 277.80 376.76 281.13 375.26 C 284.29 377.64 285.23 381.76 286.81 385.21 C 288.56 388.50 285.83 393.04 282.04 392.74 C 277.38 393.42 274.25 389.38 272.47 385.66 C 271.64 383.56 269.03 381.24 270.86 379.00 Z" />
<path fill="#0f0945" opacity="1.00" d=" M 142.98 450.01 C 143.29 449.66 143.90 448.95 144.21 448.60 C 148.38 448.46 152.54 448.63 156.71 448.65 C 156.87 452.48 156.40 456.39 157.34 460.16 C 158.89 465.42 166.49 467.08 170.41 463.40 C 174.52 460.14 173.45 454.30 174.04 449.71 C 176.03 449.71 178.02 449.72 180.01 449.76 C 181.13 453.25 180.68 457.21 182.67 460.41 C 184.40 462.79 187.29 463.89 190.01 464.72 C 201.15 467.94 212.31 471.04 223.43 474.31 C 226.41 475.25 229.76 475.62 232.25 477.68 C 234.21 479.27 234.57 481.90 235.12 484.21 C 243.30 484.35 251.49 484.06 259.67 484.37 L 259.99 484.38 C 251.15 484.31 242.27 484.80 233.45 484.10 C 232.51 488.33 227.43 488.32 224.00 488.08 C 215.80 486.33 207.32 487.48 198.99 487.00 C 191.15 485.13 182.95 486.79 175.01 485.82 C 169.45 484.47 163.65 485.42 157.99 485.11 C 154.34 485.46 150.95 483.45 147.29 484.21 C 145.20 482.04 142.92 479.81 142.11 476.81 C 141.06 472.98 141.83 468.98 142.05 465.09 C 142.53 460.08 142.22 455.00 142.98 450.01 Z" />
<path fill="#0f0945" opacity="1.00" d=" M 157.51 448.67 L 158.51 448.84 C 162.93 449.92 167.51 449.29 172.00 449.67 C 171.96 452.69 172.23 455.75 171.71 458.76 C 170.89 462.08 167.13 463.82 163.93 463.29 C 161.19 463.06 159.38 460.78 157.40 459.17 C 157.64 455.67 157.43 452.17 157.51 448.67 Z" />
</g>
<g id="#ca8895ff">
<path fill="#ca8895" opacity="1.00" d=" M 527.39 61.45 C 527.71 59.81 529.57 59.42 530.83 58.76 C 535.65 58.25 535.90 65.08 532.56 67.15 C 531.97 66.78 530.79 66.04 530.20 65.67 C 530.80 64.52 531.39 63.36 532.00 62.21 C 530.71 62.24 529.43 62.26 528.16 62.29 C 527.52 64.65 527.00 67.07 527.21 69.53 C 527.00 77.98 526.20 86.42 525.87 94.88 C 523.55 87.15 528.43 78.75 525.06 71.21 C 526.05 68.01 526.44 64.66 527.39 61.45 Z" />
</g>
<g id="#fda8abff">
<path fill="#fda8ab" opacity="1.00" d=" M 528.16 62.29 C 529.43 62.26 530.71 62.24 532.00 62.21 C 531.39 63.36 530.80 64.52 530.20 65.67 C 530.79 66.04 531.97 66.78 532.56 67.15 C 530.79 67.96 529.01 68.78 527.21 69.53 C 527.00 67.07 527.52 64.65 528.16 62.29 Z" />
</g>
<g id="#7a749cff">
<path fill="#7a749c" opacity="1.00" d=" M 92.35 67.33 C 93.53 68.43 93.71 72.63 92.14 73.61 C 91.39 71.69 91.73 69.26 92.35 67.33 Z" />
</g>
<g id="#ac738dff">
<path fill="#ac738d" opacity="1.00" d=" M 92.32 79.42 C 92.91 77.09 93.69 74.81 94.61 72.59 C 95.24 75.65 94.90 78.76 94.11 81.75 L 95.45 82.22 C 94.38 82.59 93.30 82.97 92.22 83.35 C 92.21 83.88 92.19 84.94 92.18 85.47 C 91.49 87.86 89.38 89.18 87.42 90.45 C 89.13 86.81 91.44 83.39 92.32 79.42 Z" />
</g>
<g id="#ffffffff">
<path fill="#ffffff" opacity="1.00" d=" M 495.16 72.53 C 498.21 72.69 501.30 72.70 504.27 73.56 C 502.75 75.01 501.57 77.82 499.07 77.52 C 496.57 77.38 495.45 74.65 495.16 72.53 Z" />
<path fill="#ffffff" opacity="1.00" d=" M 99.21 99.93 C 101.93 98.36 104.88 97.25 107.84 96.23 C 107.84 98.36 107.97 100.96 105.89 102.25 C 103.37 103.37 101.01 101.46 99.21 99.93 Z" />
<path fill="#ffffff" opacity="1.00" d=" M 84.74 133.20 C 88.31 134.79 92.23 135.53 96.13 135.07 C 92.30 136.05 87.82 136.02 84.74 133.20 Z" />
</g>
<g id="#716692ff">
<path fill="#716692" opacity="1.00" d=" M 91.35 74.65 L 92.38 74.70 C 92.37 76.27 92.36 77.85 92.32 79.42 C 91.44 83.39 89.13 86.81 87.42 90.45 L 86.88 91.08 C 86.41 91.64 85.92 92.18 85.43 92.71 C 84.95 92.62 84.00 92.46 83.52 92.38 C 82.61 92.90 81.70 93.42 80.80 93.95 C 79.68 93.86 78.57 93.77 77.46 93.67 C 76.96 93.63 75.96 93.54 75.47 93.49 C 78.05 92.38 80.79 91.65 83.28 90.34 C 87.89 86.40 90.36 80.52 91.35 74.65 Z" />
</g>
<g id="#f5bdbfff">
<path fill="#f5bdbf" opacity="1.00" d=" M 103.27 80.41 C 104.86 80.28 106.46 80.18 108.06 80.17 L 108.16 80.84 L 108.31 81.96 C 106.97 82.15 105.62 82.34 104.27 82.52 C 103.21 84.49 103.68 86.32 105.36 87.74 C 105.98 87.71 107.21 87.66 107.83 87.64 C 107.42 86.69 107.01 85.74 106.61 84.79 L 107.12 84.84 C 107.54 84.93 108.40 85.09 108.82 85.18 C 108.93 85.63 109.16 86.53 109.28 86.98 C 109.31 87.54 109.38 88.64 109.42 89.19 C 107.84 89.22 106.26 89.24 104.69 89.27 C 103.72 88.41 102.74 87.56 101.76 86.72 C 101.92 87.48 102.24 89.00 102.40 89.76 C 100.22 93.63 95.33 93.47 92.70 90.18 C 90.76 90.47 88.82 90.77 86.88 91.08 L 87.42 90.45 C 89.38 89.18 91.49 87.86 92.18 85.47 C 93.88 84.61 95.58 83.75 97.29 82.90 C 98.78 83.53 100.23 84.25 101.69 84.97 C 102.20 83.44 102.71 81.92 103.27 80.41 M 96.31 85.41 C 93.89 86.28 94.31 88.94 95.30 90.74 C 96.76 90.75 98.22 90.77 99.69 90.80 C 101.59 88.41 99.52 84.22 96.31 85.41 Z" />
</g>
<g id="#38363c98">
<path fill="#38363c" opacity="0.60" d=" M 108.16 80.84 C 110.65 81.32 112.38 86.49 109.28 86.98 C 109.16 86.53 108.93 85.63 108.82 85.18 C 108.62 84.11 108.45 83.03 108.31 81.96 L 108.16 80.84 Z" />
</g>
<g id="#734c78ff">
<path fill="#734c78" opacity="1.00" d=" M 95.45 82.22 C 95.91 82.39 96.83 82.73 97.29 82.90 C 95.58 83.75 93.88 84.61 92.18 85.47 C 92.19 84.94 92.21 83.88 92.22 83.35 C 93.30 82.97 94.38 82.59 95.45 82.22 Z" />
</g>
<g id="#dd949bff">
<path fill="#dd949b" opacity="1.00" d=" M 104.27 82.52 C 105.62 82.34 106.97 82.15 108.31 81.96 C 108.45 83.03 108.62 84.11 108.82 85.18 C 108.40 85.09 107.54 84.93 107.12 84.84 L 106.88 84.34 L 106.43 84.37 L 106.61 84.79 C 107.01 85.74 107.42 86.69 107.83 87.64 C 107.21 87.66 105.98 87.71 105.36 87.74 C 103.68 86.32 103.21 84.49 104.27 82.52 Z" />
</g>
<g id="#e09292ff">
<path fill="#e09292" opacity="1.00" d=" M 504.78 86.63 C 509.82 86.12 514.42 83.90 518.90 81.68 C 513.87 86.84 508.59 91.76 503.46 96.81 C 503.04 96.30 502.20 95.28 501.79 94.77 L 501.78 94.41 C 503.53 93.13 502.65 90.74 503.11 88.96 L 503.35 88.71 C 503.90 88.08 504.38 87.38 504.78 86.63 Z" />
</g>
<g id="#1c134cff">
<path fill="#1c134c" opacity="1.00" d=" M 106.43 84.37 L 106.88 84.34 L 107.12 84.84 L 106.61 84.79 L 106.43 84.37 Z" />
</g>
<g id="#f8a5a7ff">
<path fill="#f8a5a7" opacity="1.00" d=" M 96.31 85.41 C 99.52 84.22 101.59 88.41 99.69 90.80 C 98.22 90.77 96.76 90.75 95.30 90.74 C 94.31 88.94 93.89 86.28 96.31 85.41 M 97.30 86.95 C 96.78 88.55 97.32 89.09 98.92 88.58 C 99.50 86.94 98.96 86.39 97.30 86.95 Z" />
</g>
<g id="#a86f85ff">
<path fill="#a86f85" opacity="1.00" d=" M 101.76 86.72 C 102.74 87.56 103.72 88.41 104.69 89.27 C 105.68 90.32 107.32 91.23 107.00 92.94 C 106.60 94.39 105.01 94.69 103.87 95.34 C 104.24 94.17 105.63 93.13 105.33 91.82 C 104.41 91.06 103.39 90.42 102.40 89.76 C 102.24 89.00 101.92 87.48 101.76 86.72 Z" />
</g>
<g id="#ff2100ff">
<path fill="#ff2100" opacity="1.00" d=" M 452.74 115.91 C 457.28 103.91 468.91 94.49 481.94 94.05 C 488.55 94.12 495.18 93.93 501.78 94.41 L 501.79 94.77 C 501.56 98.89 501.65 103.35 504.08 106.88 C 508.12 112.75 518.01 113.07 522.23 107.20 C 524.77 103.80 527.44 99.19 525.87 94.88 C 538.28 94.70 550.84 96.63 562.26 101.64 C 570.29 105.31 576.60 112.59 579.04 121.08 C 582.05 131.63 585.01 142.19 588.02 152.74 L 588.28 153.75 C 577.10 153.45 565.92 153.77 554.74 153.61 C 554.57 147.13 554.28 140.65 553.73 134.19 C 553.24 134.09 552.26 133.90 551.77 133.80 C 550.49 139.99 546.80 145.19 543.45 150.42 C 540.27 155.09 536.84 159.63 532.84 163.64 C 527.56 160.33 521.91 157.57 516.94 153.81 C 516.58 146.33 515.00 138.99 514.19 131.55 C 514.23 128.60 509.31 128.03 508.83 130.98 C 508.50 134.00 508.72 137.04 508.69 140.07 C 500.01 135.14 493.04 127.90 486.43 120.57 C 485.02 117.98 480.22 120.24 482.01 122.86 C 485.71 128.52 490.70 133.20 494.65 138.67 C 487.99 136.47 484.39 129.92 479.07 125.82 C 478.12 125.17 476.88 125.62 475.82 125.51 C 475.51 126.15 474.88 127.45 474.56 128.09 C 478.04 133.61 483.71 137.36 487.01 142.97 C 481.45 140.24 478.60 134.00 473.01 131.46 C 469.37 132.26 470.50 136.01 472.86 137.58 C 470.00 141.68 467.49 146.01 464.73 150.18 C 464.52 150.50 464.09 151.15 463.87 151.47 C 456.74 149.20 449.67 146.72 442.57 144.34 C 445.85 134.83 449.33 125.38 452.74 115.91 Z" />
<path fill="#ff2100" opacity="1.00" d=" M 474.06 148.95 C 480.24 153.59 487.38 156.76 493.42 161.61 C 500.86 166.60 507.55 172.57 514.37 178.37 C 503.12 184.26 490.34 187.13 477.64 185.92 C 477.15 184.14 476.64 182.38 476.11 180.61 L 475.95 179.99 C 475.67 176.81 475.26 173.66 474.68 170.53 C 474.32 166.84 473.69 163.19 473.45 159.50 C 473.37 155.97 473.68 152.45 474.06 148.95 Z" />
<path fill="#ff2100" opacity="1.00" d=" M 554.81 155.06 C 566.07 154.92 577.33 155.04 588.60 155.00 C 588.88 156.35 589.12 157.71 589.35 159.07 L 587.77 159.38 C 576.93 159.62 566.08 159.25 555.24 159.55 C 555.07 158.05 554.93 156.55 554.81 155.06 Z" />
</g>
<g id="#a26a82ff">
<path fill="#a26a82" opacity="1.00" d=" M 73.59 99.22 C 70.60 97.44 74.61 94.08 77.04 94.75 C 77.38 95.34 78.06 96.52 78.40 97.10 C 77.13 96.77 75.85 96.47 74.56 96.25 C 74.32 96.99 73.83 98.48 73.59 99.22 Z" />
</g>
<g id="#a86e86ff">
<path fill="#a86e86" opacity="1.00" d=" M 76.40 98.03 C 77.83 97.71 78.38 98.22 78.04 99.58 C 76.61 99.89 76.07 99.37 76.40 98.03 Z" />
</g>
<g id="#19daecff">
<path fill="#19daec" opacity="1.00" d=" M 176.71 103.50 C 178.53 100.85 182.27 102.37 184.97 101.97 C 188.10 102.39 192.96 100.62 194.42 104.52 C 191.45 105.80 188.14 105.19 185.02 105.28 C 180.67 105.04 176.35 105.58 172.06 106.17 C 171.99 106.90 171.86 108.37 171.79 109.10 C 171.62 107.98 171.56 106.84 171.51 105.72 C 173.38 105.42 175.78 105.54 176.71 103.50 Z" />
</g>
<g id="#10a6b4ff">
<path fill="#10a6b4" opacity="1.00" d=" M 194.42 104.52 C 195.52 105.92 197.27 105.45 198.81 105.50 C 198.84 107.66 198.49 109.79 198.02 111.88 C 197.98 111.30 197.89 110.12 197.84 109.53 C 189.63 109.34 181.42 109.07 173.20 109.24 L 172.96 109.91 C 172.83 110.63 172.57 112.06 172.45 112.77 L 172.35 113.55 C 172.11 112.07 171.92 110.59 171.79 109.10 C 171.86 108.37 171.99 106.90 172.06 106.17 C 176.35 105.58 180.67 105.04 185.02 105.28 C 188.14 105.19 191.45 105.80 194.42 104.52 Z" />
</g>
<g id="#e09293ff">
<path fill="#e09293" opacity="1.00" d=" M 86.95 108.11 C 91.67 109.13 96.38 110.34 101.23 110.44 C 102.03 113.96 102.71 117.49 103.30 121.05 C 97.19 117.70 92.07 112.79 86.95 108.11 Z" />
</g>
<g id="#13c3d2ff">
<path fill="#13c3d2" opacity="1.00" d=" M 173.20 109.24 C 181.42 109.07 189.63 109.34 197.84 109.53 C 197.89 110.12 197.98 111.30 198.02 111.88 C 198.13 114.26 197.83 116.64 197.49 118.99 C 194.18 118.66 190.86 118.95 187.55 118.91 C 187.16 118.75 186.38 118.42 185.99 118.25 C 187.53 118.30 189.22 118.60 190.61 117.71 C 191.85 115.35 191.91 112.64 192.17 110.05 C 185.77 109.68 179.36 109.90 172.96 109.91 L 173.20 109.24 Z" />
<path fill="#13c3d2" opacity="1.00" d=" M 174.14 134.15 C 176.79 134.30 179.45 134.25 182.11 134.28 C 184.16 134.58 186.07 135.45 187.94 136.31 C 188.81 137.05 189.67 137.82 190.56 138.56 C 188.04 138.11 185.46 137.33 182.89 137.78 C 183.00 138.29 183.21 139.31 183.32 139.82 C 185.98 142.02 189.38 143.00 192.49 144.38 C 192.22 146.24 192.31 148.49 190.58 149.71 C 189.01 150.76 187.07 150.99 185.28 151.46 L 184.86 151.44 C 181.92 150.92 178.95 150.87 175.98 150.90 C 174.52 145.47 174.77 139.72 174.14 134.15 Z" />
</g>
<g id="#18d9ebff">
<path fill="#18d9eb" opacity="1.00" d=" M 172.96 109.91 C 179.36 109.90 185.77 109.68 192.17 110.05 C 191.91 112.64 191.85 115.35 190.61 117.71 C 189.22 118.60 187.53 118.30 185.99 118.25 C 184.60 117.69 183.23 117.11 181.85 116.56 C 181.80 117.14 181.70 118.32 181.65 118.91 C 178.64 118.85 175.62 118.85 172.60 118.75 C 172.80 116.76 172.54 114.76 172.45 112.77 C 172.57 112.06 172.83 110.63 172.96 109.91 Z" />
</g>
<g id="#4c5d26a1">
<path fill="#4c5d26" opacity="0.63" d=" M 172.35 113.55 L 172.45 112.77 C 172.54 114.76 172.80 116.76 172.60 118.75 L 172.46 119.95 C 172.49 122.64 172.88 125.32 172.97 128.01 C 171.27 123.29 172.63 118.39 172.35 113.55 Z" />
</g>
<g id="#a26c7ff6">
<path fill="#a26c7f" opacity="0.96" d=" M 365.67 116.14 C 366.74 117.14 367.85 118.11 368.96 119.08 C 370.03 118.82 371.10 118.57 372.18 118.33 C 367.74 122.89 363.30 127.46 359.98 132.94 C 357.99 131.75 355.98 130.59 353.99 129.41 C 356.44 128.32 353.75 126.20 352.91 124.99 C 355.50 126.68 357.38 129.19 359.71 131.18 C 360.77 129.57 361.81 127.95 362.86 126.33 C 359.73 124.10 356.09 122.32 353.87 119.06 C 355.09 119.48 356.94 122.58 357.52 119.71 C 359.62 121.42 361.66 123.21 363.55 125.15 C 365.22 123.74 366.74 122.15 368.11 120.44 C 367.18 119.82 366.27 119.21 365.36 118.60 C 365.44 117.98 365.60 116.75 365.67 116.14 Z" />
</g>
<g id="#fddd00ff">
<path fill="#fddd00" opacity="1.00" d=" M 172.60 118.75 C 175.62 118.85 178.64 118.85 181.65 118.91 C 183.35 121.64 186.21 123.22 188.83 124.93 L 189.63 125.99 C 186.21 124.90 182.84 123.63 179.49 122.36 C 178.63 126.95 184.55 128.22 187.47 130.33 C 187.85 130.68 188.63 131.38 189.01 131.74 C 186.09 131.28 183.22 130.56 180.37 129.76 C 180.46 131.43 181.23 132.90 182.11 134.28 C 179.45 134.25 176.79 134.30 174.14 134.15 L 173.22 134.11 C 173.13 132.07 173.07 130.04 172.97 128.01 C 172.88 125.32 172.49 122.64 172.46 119.95 L 172.60 118.75 Z" />
</g>
<g id="#ffde01ff">
<path fill="#ffde01" opacity="1.00" d=" M 187.55 118.91 C 190.86 118.95 194.18 118.66 197.49 118.99 L 198.30 119.35 C 198.06 121.20 197.93 123.05 197.85 124.91 C 194.67 122.50 191.02 120.84 187.55 118.91 Z" />
</g>
<g id="#c1c6e0ff">
<path fill="#c1c6e0" opacity="1.00" d=" M 103.30 121.05 L 104.18 120.97 C 104.10 124.19 104.04 127.61 102.06 130.33 C 102.70 127.27 103.03 124.16 103.30 121.05 Z" />
</g>
<g id="#3c9befff">
<path fill="#3c9bef" opacity="1.00" d=" M 104.18 120.97 C 112.28 120.29 121.53 119.15 128.14 125.03 C 130.23 127.27 131.48 130.16 132.09 133.14 C 132.26 136.26 130.43 138.98 130.11 142.03 C 130.23 146.98 131.00 152.00 133.39 156.41 C 136.45 162.29 136.32 169.45 133.36 175.34 C 131.43 179.95 127.60 183.29 124.83 187.35 C 126.21 186.66 127.57 185.94 128.91 185.19 C 132.21 184.49 135.42 181.68 138.87 183.15 C 137.71 184.18 134.79 184.75 136.02 186.89 C 138.14 193.19 140.28 199.49 142.68 205.69 C 144.22 204.79 145.78 203.91 147.31 202.98 L 147.20 204.58 C 145.07 206.54 142.32 207.54 139.73 208.71 C 114.54 220.49 89.47 232.50 64.26 244.24 C 58.36 247.01 51.24 246.03 46.04 242.18 C 37.34 235.55 33.54 223.72 34.38 213.05 C 36.10 195.03 37.92 177.01 39.65 158.98 C 40.04 154.94 40.78 150.89 42.33 147.12 C 45.04 139.42 50.30 132.59 57.14 128.13 C 63.73 123.66 71.78 122.32 79.60 122.15 C 80.04 126.25 81.49 130.48 84.74 133.20 C 87.82 136.02 92.30 136.05 96.13 135.07 C 98.55 134.18 100.73 132.55 102.06 130.33 C 104.04 127.61 104.10 124.19 104.18 120.97 M 72.51 164.93 C 70.90 179.32 68.80 193.65 67.15 208.03 C 65.43 209.65 63.70 211.27 62.12 213.03 C 65.12 211.49 66.76 208.19 69.88 206.86 C 87.83 200.32 105.96 194.17 123.83 187.43 C 112.18 190.92 100.48 194.24 88.84 197.75 C 85.70 198.63 82.36 200.02 79.11 198.83 C 75.97 198.05 73.18 195.35 73.10 191.99 C 72.45 182.99 73.25 173.93 72.51 164.93 Z" />
</g>
<g id="#aa7086ff">
<path fill="#aa7086" opacity="1.00" d=" M 376.97 136.02 C 374.45 131.14 376.34 123.80 381.44 121.42 C 380.01 124.59 377.30 127.34 377.24 131.01 C 377.08 135.08 380.11 138.11 382.23 141.25 C 379.42 141.04 378.18 138.15 376.97 136.02 Z" />
</g>
<g id="#232324ff">
<path fill="#232324" opacity="1.00" d=" M 187.47 130.33 C 189.93 131.35 192.21 132.78 194.19 134.57 C 192.44 133.68 190.72 132.71 189.01 131.74 C 188.63 131.38 187.85 130.68 187.47 130.33 Z" />
<path fill="#232324" opacity="1.00" d=" M 473.38 172.77 C 473.71 172.21 474.36 171.09 474.68 170.53 C 475.26 173.66 475.67 176.81 475.95 179.99 C 474.85 177.70 476.30 173.53 473.38 172.77 Z" />
<path fill="#232324" opacity="1.00" d=" M 160.81 193.74 C 163.23 192.05 165.68 190.40 168.13 188.75 C 167.11 191.90 165.94 195.00 164.83 198.11 C 164.38 198.26 163.49 198.55 163.04 198.69 C 162.30 197.04 161.56 195.39 160.81 193.74 Z" />
</g>
<g id="#348ad5ff">
<path fill="#348ad5" opacity="1.00" d=" M 132.09 133.14 C 138.14 146.19 144.32 159.17 150.44 172.19 C 150.71 172.33 151.26 172.60 151.53 172.74 C 146.94 175.76 143.62 180.35 138.87 183.15 C 135.42 181.68 132.21 184.49 128.91 185.19 C 132.26 180.19 136.05 175.14 136.78 168.97 C 137.92 163.54 135.97 158.19 133.66 153.35 C 131.53 149.10 132.00 144.23 131.74 139.64 C 131.18 140.42 130.64 141.22 130.11 142.03 C 130.43 138.98 132.26 136.26 132.09 133.14 Z" />
<path fill="#348ad5" opacity="1.00" d=" M 176.04 169.66 C 177.95 164.98 179.60 160.20 181.68 155.59 C 182.55 155.69 184.27 155.88 185.14 155.97 C 191.02 156.68 196.93 157.23 202.78 158.18 C 203.87 158.36 204.96 158.54 206.05 158.73 C 202.68 170.43 199.98 182.31 196.54 193.98 C 196.38 194.39 196.06 195.20 195.90 195.61 C 185.51 193.96 174.83 194.94 164.83 198.11 C 165.94 195.00 167.11 191.90 168.13 188.75 C 171.38 186.52 174.42 183.93 176.83 180.79 C 178.96 178.13 179.77 174.67 182.06 172.11 C 184.04 169.45 186.92 166.59 186.14 162.96 C 182.07 163.47 179.41 167.52 176.04 169.66 Z" />
</g>
<g id="#ed2204ff">
<path fill="#ed2204" opacity="1.00" d=" M 543.45 150.42 C 546.80 145.19 550.49 139.99 551.77 133.80 C 551.72 138.77 552.06 143.74 552.45 148.70 C 552.77 152.33 552.29 156.16 553.90 159.57 C 555.46 165.33 555.90 171.34 556.43 177.28 C 548.29 173.24 540.72 168.15 532.84 163.64 C 536.84 159.63 540.27 155.09 543.45 150.42 Z" />
<path fill="#ed2204" opacity="1.00" d=" M 477.64 185.92 C 490.34 187.13 503.12 184.26 514.37 178.37 C 526.45 188.90 538.72 199.22 550.98 209.56 C 542.45 209.44 533.91 209.48 525.39 209.55 C 510.37 209.49 495.35 209.38 480.34 209.61 C 478.98 208.93 479.13 207.35 478.93 206.08 C 478.03 197.59 476.43 189.16 476.11 180.61 C 476.64 182.38 477.15 184.14 477.64 185.92 Z" />
</g>
<g id="#bc1a02ff">
<path fill="#bc1a02" opacity="1.00" d=" M 551.77 133.80 C 552.26 133.90 553.24 134.09 553.73 134.19 C 554.28 140.65 554.57 147.13 554.74 153.61 C 554.75 153.97 554.79 154.69 554.81 155.06 C 554.93 156.55 555.07 158.05 555.24 159.55 L 553.90 159.57 C 552.29 156.16 552.77 152.33 552.45 148.70 C 552.06 143.74 551.72 138.77 551.77 133.80 Z" />
</g>
<g id="#000000ff">
<path fill="#000000" opacity="1.00" d=" M 464.73 150.18 C 467.49 146.01 470.00 141.68 472.86 137.58 C 473.26 137.99 474.06 138.81 474.46 139.22 C 474.57 141.02 474.54 142.84 474.26 144.62 C 471.93 145.47 472.33 147.74 474.06 148.95 C 473.68 152.45 473.37 155.97 473.45 159.50 C 469.44 158.16 465.45 156.79 461.45 155.44 C 461.90 154.68 462.80 153.16 463.25 152.40 C 466.66 153.34 469.96 154.62 473.37 155.54 C 470.81 153.10 466.98 153.07 463.98 151.40 L 464.73 150.18 Z" />
<path fill="#000000" opacity="1.00" d=" M 483.05 147.98 C 484.40 149.15 485.77 150.30 487.07 151.53 C 485.94 150.84 484.83 150.15 483.71 149.45 L 483.05 147.98 Z" />
</g>
<g id="#ff2000ff">
<path fill="#ff2000" opacity="1.00" d=" M 474.46 139.22 C 477.30 142.16 480.15 145.10 483.05 147.98 L 483.71 149.45 C 480.30 148.39 477.24 146.55 474.26 144.62 C 474.54 142.84 474.57 141.02 474.46 139.22 Z" />
</g>
<g id="#2a63abff">
<path fill="#2a63ab" opacity="1.00" d=" M 130.11 142.03 C 130.64 141.22 131.18 140.42 131.74 139.64 C 132.00 144.23 131.53 149.10 133.66 153.35 C 135.97 158.19 137.92 163.54 136.78 168.97 C 136.05 175.14 132.26 180.19 128.91 185.19 C 127.57 185.94 126.21 186.66 124.83 187.35 C 127.60 183.29 131.43 179.95 133.36 175.34 C 136.32 169.45 136.45 162.29 133.39 156.41 C 131.00 152.00 130.23 146.98 130.11 142.03 Z" />
</g>
<g id="#ff1f00ff">
<path fill="#ff1f00" opacity="1.00" d=" M 441.12 148.67 C 442.15 147.65 442.89 145.07 444.80 146.02 C 451.06 147.91 457.09 150.57 463.48 152.05 L 463.25 152.40 C 462.80 153.16 461.90 154.68 461.45 155.44 C 455.33 153.43 449.28 151.25 443.14 149.33 C 442.63 149.17 441.63 148.84 441.12 148.67 Z" />
</g>
<g id="#8caba6ff">
<path fill="#8caba6" opacity="1.00" d=" M 463.87 151.47 C 464.09 151.15 464.52 150.50 464.73 150.18 L 463.98 151.40 C 466.98 153.07 470.81 153.10 473.37 155.54 C 469.96 154.62 466.66 153.34 463.25 152.40 L 463.48 152.05 C 463.58 151.90 463.77 151.61 463.87 151.47 Z" />
<path fill="#8caba6" opacity="1.00" d=" M 461.94 431.40 C 463.49 430.68 465.07 430.02 466.68 429.43 L 466.62 430.43 C 465.61 431.42 463.39 432.53 464.84 434.18 C 467.43 438.52 469.97 442.90 472.01 447.54 C 471.89 448.67 470.24 451.27 469.26 449.04 C 465.96 444.71 464.76 439.27 462.41 434.45 C 461.00 432.02 456.45 432.75 456.50 435.77 C 457.39 441.99 462.88 445.76 466.29 450.57 C 463.21 450.27 461.42 447.50 459.51 445.42 C 457.13 442.40 454.53 438.93 454.70 434.90 C 455.35 431.49 459.12 431.10 461.94 431.40 Z" />
</g>
<g id="#562f2c8a">
<path fill="#562f2c" opacity="0.54" d=" M 588.02 152.74 C 589.46 154.44 589.49 156.76 589.99 158.83 C 589.61 159.33 588.86 160.32 588.48 160.81 C 589.57 166.56 590.83 172.34 590.83 178.21 C 589.64 171.96 588.78 165.66 587.77 159.38 L 589.35 159.07 C 589.12 157.71 588.88 156.35 588.60 155.00 L 588.28 153.75 L 588.02 152.74 Z" />
</g>
<g id="#fd7966ff">
<path fill="#fd7966" opacity="1.00" d=" M 554.81 155.06 C 554.79 154.69 554.75 153.97 554.74 153.61 C 565.92 153.77 577.10 153.45 588.28 153.75 L 588.60 155.00 C 577.33 155.04 566.07 154.92 554.81 155.06 Z" />
</g>
<g id="#348ad6ff">
<path fill="#348ad6" opacity="1.00" d=" M 147.31 202.98 C 151.82 199.91 156.31 196.83 160.81 193.74 C 161.56 195.39 162.30 197.04 163.04 198.69 C 157.78 200.71 152.37 202.35 147.20 204.58 L 147.31 202.98 Z" />
</g>
<g id="#3e39a0ff">
<path fill="#3e39a0" opacity="1.00" d=" M 195.90 195.61 C 196.06 195.20 196.38 194.39 196.54 193.98 C 196.47 194.56 196.32 195.74 196.25 196.33 C 216.06 199.10 234.40 212.60 241.83 231.32 C 249.00 246.57 256.05 261.90 262.82 277.33 C 274.94 302.94 286.41 328.86 298.27 354.58 C 298.42 355.11 298.71 356.18 298.86 356.72 C 296.46 357.77 294.10 358.92 291.62 359.79 C 288.34 361.49 284.86 362.80 281.79 364.88 C 273.14 369.28 264.18 373.08 255.34 377.10 C 249.01 380.15 242.69 383.24 236.21 385.94 C 221.33 346.75 206.53 307.55 191.64 268.36 C 186.38 253.82 176.17 240.85 162.36 233.61 C 151.46 227.60 138.94 225.99 127.01 223.10 C 124.39 222.40 121.67 222.27 118.97 222.29 C 133.25 225.90 147.18 231.40 159.41 239.67 C 167.11 244.92 173.94 251.94 177.18 260.83 C 184.61 280.23 188.92 300.65 193.33 320.90 C 197.23 338.13 200.20 355.55 203.64 372.87 C 205.31 382.06 206.64 391.33 208.80 400.43 C 207.96 414.82 207.05 429.21 206.22 443.61 C 197.78 443.72 189.41 442.41 180.97 442.40 C 170.34 441.59 159.70 440.87 149.05 440.40 C 144.75 440.12 140.47 439.49 136.16 439.49 C 134.83 439.46 133.51 439.45 132.19 439.44 C 132.70 426.98 135.47 414.72 136.58 402.30 C 141.88 364.70 146.63 327.03 151.78 289.41 C 146.57 289.42 141.35 289.42 136.13 289.43 C 124.73 289.47 113.33 289.42 101.93 289.46 C 92.77 289.58 83.54 288.16 74.95 284.92 C 69.49 282.85 63.99 280.39 59.75 276.26 C 58.33 275.13 57.11 273.31 55.08 273.48 C 41.25 273.35 27.42 273.57 13.59 273.38 C 27.92 273.07 42.28 273.22 56.62 273.31 C 56.81 271.42 55.06 270.29 54.29 268.77 C 51.22 263.38 49.71 257.17 49.56 250.99 C 49.40 247.77 49.41 243.79 46.04 242.18 C 51.24 246.03 58.36 247.01 64.26 244.24 C 89.47 232.50 114.54 220.49 139.73 208.71 C 142.32 207.54 145.07 206.54 147.20 204.58 C 152.37 202.35 157.78 200.71 163.04 198.69 C 163.49 198.55 164.38 198.26 164.83 198.11 C 174.83 194.94 185.51 193.96 195.90 195.61 Z" />
</g>
<g id="#017e5eff">
<path fill="#017e5e" opacity="1.00" d=" M 422.83 218.57 C 433.43 213.25 445.19 210.39 457.00 209.67 C 464.78 209.55 472.56 209.71 480.34 209.61 C 495.35 209.38 510.37 209.49 525.39 209.55 C 521.48 212.48 516.63 213.47 512.13 215.10 C 502.38 218.46 491.84 220.82 483.87 227.79 C 474.64 236.06 470.42 248.23 468.07 260.08 C 466.80 266.17 466.23 272.41 466.28 278.63 C 463.09 278.59 459.90 278.59 456.71 278.62 C 447.65 335.37 438.48 392.11 429.45 448.87 C 424.01 448.55 418.72 447.19 413.38 446.21 C 401.52 444.15 389.70 441.84 377.85 439.71 C 376.62 439.51 375.41 439.26 374.22 438.98 C 374.01 438.86 373.59 438.61 373.38 438.49 C 369.72 437.68 366.04 436.97 362.35 436.33 C 365.72 420.51 369.04 404.69 372.39 388.87 C 373.20 385.06 374.21 381.27 374.54 377.37 C 378.96 354.43 384.18 331.65 388.88 308.76 C 391.51 297.12 393.56 285.33 396.53 273.77 C 398.34 268.27 399.05 262.50 400.38 256.88 C 402.20 249.74 402.78 242.19 406.17 235.53 C 409.85 228.39 415.59 222.18 422.83 218.57 Z" />
</g>
<g id="#00976eff">
<path fill="#00976e" opacity="1.00" d=" M 525.39 209.55 C 533.91 209.48 542.45 209.44 550.98 209.56 C 557.89 215.62 566.22 222.12 576.03 220.77 C 575.88 230.54 578.08 240.21 577.17 249.99 C 576.21 256.00 574.42 261.99 571.14 267.17 C 569.80 269.39 567.73 271.07 566.58 273.42 C 562.65 275.61 558.57 277.91 553.98 278.23 C 547.33 278.71 540.65 278.13 534.00 278.46 C 530.24 278.53 526.83 282.19 527.29 286.00 C 527.37 298.06 529.17 310.01 529.79 322.04 C 530.53 329.36 531.63 336.66 531.61 344.03 C 534.59 379.11 537.42 414.20 540.29 449.27 C 534.77 448.57 529.28 447.65 523.80 446.72 C 511.59 444.55 499.36 442.53 487.14 440.44 C 480.57 438.97 473.75 438.89 467.31 436.92 C 467.07 434.75 466.80 432.59 466.62 430.43 L 466.68 429.43 C 466.96 404.62 466.58 379.80 466.60 354.99 C 466.46 329.54 466.57 304.08 466.28 278.63 C 466.23 272.41 466.80 266.17 468.07 260.08 C 470.42 248.23 474.64 236.06 483.87 227.79 C 491.84 220.82 502.38 218.46 512.13 215.10 C 516.63 213.47 521.48 212.48 525.39 209.55 Z" />
</g>
<g id="#bbe6d2ff">
<path fill="#bbe6d2" opacity="1.00" d=" M 374.12 273.37 C 381.58 273.67 389.11 272.90 396.53 273.77 C 393.56 285.33 391.51 297.12 388.88 308.76 C 384.18 331.65 378.96 354.43 374.54 377.37 C 374.09 374.26 374.02 371.11 374.05 367.97 C 374.11 336.44 373.96 304.90 374.12 273.37 Z" />
<path fill="#bbe6d2" opacity="1.00" d=" M 456.71 278.62 C 459.90 278.59 463.09 278.59 466.28 278.63 C 466.57 304.08 466.46 329.54 466.60 354.99 C 466.58 379.80 466.96 404.62 466.68 429.43 C 465.07 430.02 463.49 430.68 461.94 431.40 C 459.12 431.10 455.35 431.49 454.70 434.90 C 454.53 438.93 457.13 442.40 459.51 445.42 C 461.42 447.50 463.21 450.27 466.29 450.57 C 462.88 445.76 457.39 441.99 456.50 435.77 C 456.45 432.75 461.00 432.02 462.41 434.45 C 464.76 439.27 465.96 444.71 469.26 449.04 C 470.24 451.27 471.89 448.67 472.01 447.54 C 469.97 442.90 467.43 438.52 464.84 434.18 C 463.39 432.53 465.61 431.42 466.62 430.43 C 466.80 432.59 467.07 434.75 467.31 436.92 C 473.75 438.89 480.57 438.97 487.14 440.44 C 487.07 441.05 486.95 442.26 486.89 442.87 C 485.63 442.49 484.07 441.66 483.10 443.02 C 480.91 445.15 477.82 446.36 475.95 448.77 C 478.60 451.89 482.65 453.46 485.22 456.70 C 481.39 454.09 477.85 451.07 474.00 448.49 C 472.94 449.14 471.85 449.74 470.75 450.31 C 471.79 451.63 472.87 452.92 473.94 454.23 C 472.55 453.15 471.20 452.03 469.87 450.90 C 468.28 450.76 466.70 450.63 465.12 450.51 C 465.04 453.11 467.60 454.43 469.00 456.26 C 466.68 454.93 465.04 451.86 462.06 452.21 C 450.37 453.29 438.68 459.13 432.23 469.20 C 450.15 473.66 468.14 477.84 486.08 482.24 C 490.27 483.36 493.49 479.22 497.62 479.13 C 497.44 480.81 497.26 482.49 497.09 484.18 C 468.73 484.51 440.36 484.19 412.00 484.33 C 410.20 484.35 408.41 484.27 406.64 484.09 C 408.14 476.82 409.41 469.38 409.56 461.95 C 409.42 456.48 412.25 451.48 413.38 446.21 C 418.72 447.19 424.01 448.55 429.45 448.87 C 438.48 392.11 447.65 335.37 456.71 278.62 Z" />
</g>
<g id="#ff77a5ff">
<path fill="#ff77a5" opacity="1.00" d=" M 13.59 273.38 C 27.42 273.57 41.25 273.35 55.08 273.48 C 57.11 273.31 58.33 275.13 59.75 276.26 C 63.99 280.39 69.49 282.85 74.95 284.92 C 83.54 288.16 92.77 289.58 101.93 289.46 C 113.33 289.42 124.73 289.47 136.13 289.43 C 136.27 317.62 136.19 345.82 136.21 374.01 C 136.25 383.44 135.99 392.88 136.58 402.30 C 135.47 414.72 132.70 426.98 132.19 439.44 C 133.51 439.45 134.83 439.46 136.16 439.49 C 136.25 454.45 136.22 469.41 136.14 484.37 C 95.31 484.38 54.47 484.43 13.64 484.34 C 13.53 414.02 13.63 343.70 13.59 273.38 Z" />
</g>
<g id="#97c2aeff">
<path fill="#97c2ae" opacity="1.00" d=" M 553.98 278.23 C 558.57 277.91 562.65 275.61 566.58 273.42 C 584.24 273.63 601.90 273.47 619.56 273.50 C 619.47 343.76 619.59 414.02 619.50 484.28 C 589.67 484.24 559.85 484.28 530.03 484.26 C 526.72 484.15 523.36 484.62 520.12 483.84 C 521.87 476.95 521.99 469.76 523.50 462.83 C 523.24 462.56 522.72 462.02 522.46 461.76 C 523.07 456.76 523.59 451.75 523.80 446.72 C 529.28 447.65 534.77 448.57 540.29 449.27 C 537.42 414.20 534.59 379.11 531.61 344.03 C 531.63 336.66 530.53 329.36 529.79 322.04 C 529.17 310.01 527.37 298.06 527.29 286.00 C 526.83 282.19 530.24 278.53 534.00 278.46 C 540.65 278.13 547.33 278.71 553.98 278.23 Z" />
</g>
<g id="#dc688fff">
<path fill="#dc688f" opacity="1.00" d=" M 136.13 289.43 C 141.35 289.42 146.57 289.42 151.78 289.41 C 146.63 327.03 141.88 364.70 136.58 402.30 C 135.99 392.88 136.25 383.44 136.21 374.01 C 136.19 345.82 136.27 317.62 136.13 289.43 Z" />
<path fill="#dc688f" opacity="1.00" d=" M 212.13 348.03 C 212.60 341.57 212.55 335.07 213.55 328.66 C 220.90 347.64 227.88 366.78 235.27 385.75 L 236.21 385.94 C 242.69 383.24 249.01 380.15 255.34 377.10 C 254.93 379.69 256.39 381.86 257.82 383.87 C 256.92 384.23 256.08 384.69 255.28 385.23 C 255.15 389.59 256.32 393.86 256.85 398.17 C 257.21 401.17 257.91 404.16 259.56 406.74 C 260.12 419.12 259.64 431.57 259.80 443.99 C 259.71 457.45 259.98 470.91 259.67 484.37 C 251.49 484.06 243.30 484.35 235.12 484.21 C 234.57 481.90 234.21 479.27 232.25 477.68 C 229.76 475.62 226.41 475.25 223.43 474.31 C 212.31 471.04 201.15 467.94 190.01 464.72 C 187.29 463.89 184.40 462.79 182.67 460.41 C 180.68 457.21 181.13 453.25 180.01 449.76 C 179.77 449.48 179.27 448.91 179.02 448.63 C 179.64 446.54 180.30 444.46 180.97 442.40 C 189.41 442.41 197.78 443.72 206.22 443.61 C 207.05 429.21 207.96 414.82 208.80 400.43 C 210.24 382.99 210.92 365.49 212.13 348.03 Z" />
<path fill="#dc688f" opacity="1.00" d=" M 136.16 439.49 C 140.47 439.49 144.75 440.12 149.05 440.40 C 148.49 442.84 147.84 445.28 147.03 447.66 C 146.04 447.83 145.10 448.14 144.21 448.60 C 143.90 448.95 143.29 449.66 142.98 450.01 C 142.22 455.00 142.53 460.08 142.05 465.09 C 141.83 468.98 141.06 472.98 142.11 476.81 C 142.92 479.81 145.20 482.04 147.29 484.21 C 143.58 484.45 139.86 484.31 136.14 484.37 C 136.22 469.41 136.25 454.45 136.16 439.49 Z" />
</g>
<g id="#685c81fd">
<path fill="#685c81" opacity="1.00" d=" M 285.58 372.67 L 286.10 372.32 C 285.75 373.30 285.25 374.20 284.60 375.02 L 283.92 375.32 C 285.51 379.21 287.84 382.84 288.87 386.95 C 289.22 391.56 284.47 395.22 280.05 394.22 C 273.41 393.37 271.34 386.05 268.57 381.03 C 267.96 380.97 266.74 380.84 266.13 380.78 C 267.69 380.16 269.26 379.54 270.86 379.00 C 269.03 381.24 271.64 383.56 272.47 385.66 C 274.25 389.38 277.38 393.42 282.04 392.74 C 285.83 393.04 288.56 388.50 286.81 385.21 C 285.23 381.76 284.29 377.64 281.13 375.26 C 282.70 374.56 284.17 373.66 285.58 372.67 Z" />
</g>
<g id="#bfd9c9fe">
<path fill="#bfd9c9" opacity="1.00" d=" M 374.22 438.98 C 375.41 439.26 376.62 439.51 377.85 439.71 C 377.33 441.37 376.82 443.03 376.32 444.70 C 375.57 444.34 374.82 443.98 374.08 443.63 C 374.11 442.47 374.18 440.14 374.22 438.98 Z" />
</g>
<g id="#554973ff">
<path fill="#554973" opacity="1.00" d=" M 158.51 448.84 C 165.34 448.29 172.19 449.08 179.02 448.63 C 179.27 448.91 179.77 449.48 180.01 449.76 C 178.02 449.72 176.03 449.71 174.04 449.71 C 173.45 454.30 174.52 460.14 170.41 463.40 C 166.49 467.08 158.89 465.42 157.34 460.16 L 157.40 459.17 C 159.38 460.78 161.19 463.06 163.93 463.29 C 167.13 463.82 170.89 462.08 171.71 458.76 C 172.23 455.75 171.96 452.69 172.00 449.67 C 167.51 449.29 162.93 449.92 158.51 448.84 Z" />
</g>
<g id="#665e8eff">
<path fill="#665e8e" opacity="1.00" d=" M 360.11 448.33 C 360.90 448.51 362.47 448.86 363.26 449.04 C 365.88 451.69 370.41 453.19 371.29 457.09 C 367.81 454.84 364.52 452.29 361.26 449.73 L 360.11 448.33 Z" />
</g>
<g id="#686090ff">
<path fill="#686090" opacity="1.00" d=" M 349.27 451.58 C 349.90 451.74 351.16 452.06 351.79 452.23 C 354.57 454.31 357.65 456.23 359.45 459.30 C 355.46 457.68 352.02 454.86 349.27 451.58 Z" />
</g>
<g id="#bde8d3ff">
<path fill="#bde8d3" opacity="1.00" d=" M 375.03 482.82 C 377.67 480.92 380.79 479.88 383.61 478.30 C 383.53 480.26 383.45 482.24 383.38 484.22 L 382.98 484.22 C 381.29 484.24 379.59 484.23 377.91 484.11 C 377.05 483.86 374.70 484.32 375.03 482.82 Z" />
</g>
</svg>
